<?xml version="1.0" encoding="UTF-8"?>
<svg xmlns="http://www.w3.org/2000/svg" width="64.057" height="64.025" viewBox="0 0 64.057 64.025">
  <g id="Keypad_Panel" data-name="Keypad Panel" transform="translate(0.057)">
    <g id="Container" opacity="0">
      <rect id="Rectángulo_1971" data-name="Rectángulo 1971" width="64" height="64" fill="#e04c59"></rect>
    </g>
    <path id="Trazado_2388" data-name="Trazado 2388" d="M29.15,38.6a9.89,9.89,0,0,0-9-4.57c-1.1,0-1.54,3.34-.34,3.94,6.68,3.32,5.41,10.88,6.64,14.33,1.08,3,2.87,4.78,3.51,8.19.54,2.85,12.66,3,15.5,1.77,2.19-1,3.16-5.19,3.87-7.37A34.44,34.44,0,0,0,50.9,41.83c-.26-4.19-3.3-6.56-5.94-5.6" fill="none" stroke="#445d82" stroke-linecap="round" stroke-linejoin="round" stroke-width="2"></path>
    <path id="Trazado_2389" data-name="Trazado 2389" d="M45,38c-.06-.91-.34-3.26-1.57-3.76a4.4,4.4,0,0,0-3.23.42" fill="none" stroke="#445d82" stroke-linecap="round" stroke-linejoin="round" stroke-width="2"></path>
    <path id="Trazado_2390" data-name="Trazado 2390" d="M40.08,36.87c0-1.51,0-2.72-1.24-3.5a5.27,5.27,0,0,0-4,.1" fill="none" stroke="#445d82" stroke-linecap="round" stroke-linejoin="round" stroke-width="2"></path>
    <path id="Trazado_2391" data-name="Trazado 2391" d="M34.92,36.13c-.23-1.14-.16-7.93-.31-9.91s-.37-6.75-.64-8.09c-.41-2-4.57-1.31-5,2.1-.23,1.86-.12,2.54,0,7.4.16,5.57.29,11.53,0,15.42" fill="none" stroke="#445d82" stroke-linecap="round" stroke-linejoin="round" stroke-width="2"></path>
    <path id="Trazado_2392" data-name="Trazado 2392" d="M46.52,53.38c-.4,1-.83,3.36-1.28,4.1" fill="none" stroke="#445d82" stroke-linecap="round" stroke-linejoin="round" stroke-width="1"></path>
    <path id="Trazado_2393" data-name="Trazado 2393" d="M30.25,53.29c-.66-1.06-1.83-2.5-1.56-3.27" fill="none" stroke="#445d82" stroke-linecap="round" stroke-linejoin="round" stroke-width="1"></path>
    <path id="Trazado_2394" data-name="Trazado 2394" d="M54.43,41.43c.78-2.07-.61-4-2.13-5.26" fill="none" stroke="#445d82" stroke-linecap="round" stroke-linejoin="round" stroke-width="1"></path>
    <path id="Trazado_2395" data-name="Trazado 2395" d="M56.92,38.17a6.64,6.64,0,0,0-2.14-3.07" fill="none" stroke="#445d82" stroke-linecap="round" stroke-linejoin="round" stroke-width="1"></path>
    <path id="Trazado_2396" data-name="Trazado 2396" d="M22.89,54c-1.18,0-4.6-.14-7.48-.3C10,53.38,6,50.18,5.46,43.72c-.74-8.46-.47-25.5,0-32s3.5-9.5,10-10a215.24,215.24,0,0,1,33,0c6.27.6,9.34,3.52,9.95,10a216.661,216.661,0,0,1,0,32c-.54,6.21-1.28,6.8-4.32,8.7" fill="none" stroke="#445d82" stroke-linecap="round" stroke-linejoin="round" stroke-width="2"></path>
    <circle id="Elipse_127" data-name="Elipse 127" cx="4.51" cy="4.51" r="4.51" transform="translate(13.49 8.5)" fill="none" stroke="#445d82" stroke-linecap="round" stroke-linejoin="round" stroke-width="1"></circle>
    <path id="Trazado_2397" data-name="Trazado 2397" d="M28.25,15.54A4.5,4.5,0,0,1,27.48,13c0-2.49,1.42-4.57,4.51-4.51A4.54,4.54,0,0,1,36.49,13a4.78,4.78,0,0,1-.72,2.63" fill="none" stroke="#445d82" stroke-linecap="round" stroke-linejoin="round" stroke-width="1"></path>
    <path id="Trazado_2398" data-name="Trazado 2398" d="M50.5,13A4.59,4.59,0,0,1,46,17.5c-3.55.21-4.63-2-4.51-4.5.15-3.23,2-4.51,4.51-4.51A4.5,4.5,0,0,1,50.5,13Z" fill="none" stroke="#445d82" stroke-linecap="round" stroke-linejoin="round" stroke-width="1"></path>
    <path id="Trazado_2399" data-name="Trazado 2399" d="M22.51,27c0,2.49-1.82,3.92-4.51,4.51-2.43.53-4.5-2-4.5-4.51a4.51,4.51,0,0,1,9,0Z" fill="none" stroke="#445d82" stroke-linecap="round" stroke-linejoin="round" stroke-width="1"></path>
    <path id="Trazado_2400" data-name="Trazado 2400" d="M50.5,27A4.5,4.5,0,0,1,46,31.51c-2.49,0-4.07-1.54-4.51-4.51-.36-2.46,2-4.5,4.51-4.5A4.5,4.5,0,0,1,50.5,27Z" fill="none" stroke="#445d82" stroke-linecap="round" stroke-linejoin="round" stroke-width="1"></path>
    <path id="Trazado_2401" data-name="Trazado 2401" d="M21.64,43.65A4.5,4.5,0,0,1,13.5,41c0-2,.7-3.57,2.61-4.21" fill="none" stroke="#445d82" stroke-linecap="round" stroke-linejoin="round" stroke-width="1"></path>
    <path id="Trazado_2402" data-name="Trazado 2402" d="M11.26,48.52c.83,1.59,3.87,2.07,6,1.95" fill="none" stroke="#445d82" stroke-linecap="round" stroke-linejoin="round" stroke-width="1"></path>
    <path id="Trazado_2403" data-name="Trazado 2403" d="M4.42,3.53a13.26,13.26,0,0,0-2.06,7" fill="none" stroke="#445d82" stroke-linecap="round" stroke-linejoin="round" stroke-width="1"></path>
    <path id="Trazado_2404" data-name="Trazado 2404" d="M1.42,2.59a9.48,9.48,0,0,0-.94,5" fill="none" stroke="#445d82" stroke-linecap="round" stroke-linejoin="round" stroke-width="1"></path>
    <path id="Trazado_2405" data-name="Trazado 2405" d="M26.52,7.66c-.27-.43-.8-.66-.95-1.15" fill="none" stroke="#445d82" stroke-linecap="round" stroke-linejoin="round" stroke-width="1"></path>
    <path id="Trazado_2406" data-name="Trazado 2406" d="M29.23,6.51c-.3-.73-1.62-2.42-1.75-3" fill="none" stroke="#445d82" stroke-linecap="round" stroke-linejoin="round" stroke-width="1"></path>
    <path id="Trazado_2407" data-name="Trazado 2407" d="M31.47,5.92a9.373,9.373,0,0,1,.06-1.36" fill="none" stroke="#445d82" stroke-linecap="round" stroke-linejoin="round" stroke-width="1"></path>
  </g>
</svg>
