<?xml version="1.0" encoding="UTF-8"?>
<svg xmlns="http://www.w3.org/2000/svg" id="Human_Resources" data-name="Human Resources" width="64" height="64" viewBox="0 0 64 64">
  <g id="Container" opacity="0">
    <rect id="Rectángulo_1972" data-name="Rectángulo 1972" width="64" height="64" fill="#e04c59"></rect>
  </g>
  <path id="Trazado_2408" data-name="Trazado 2408" d="M49,31.92c0,6.26,7.28,5.63,11.17,8.08C61.82,41,63,45.55,63,48.54c0,.9-1.25,1.58-3.5,2.12" fill="none" stroke="#445d82" stroke-linecap="round" stroke-miterlimit="10" stroke-width="2" fill-rule="evenodd"></path>
  <path id="Trazado_2409" data-name="Trazado 2409" d="M43.22,32.31a5.9,5.9,0,0,0,2.45.56c4,0,8.33-4.46,8.33-13.1C54,13.18,50.83,10,45.67,10a7.39,7.39,0,0,0-1.67.15" fill="none" stroke="#445d82" stroke-linecap="round" stroke-linejoin="round" stroke-width="2" fill-rule="evenodd"></path>
  <path id="Trazado_2410" data-name="Trazado 2410" d="M4.5,50.66C2.25,50.12,1,49.44,1,48.54c0-3,1.18-7.5,2.84-8.54C7.73,37.55,15,38.18,15,31.92" fill="none" stroke="#445d82" stroke-linecap="round" stroke-miterlimit="10" stroke-width="2" fill-rule="evenodd"></path>
  <path id="Trazado_2411" data-name="Trazado 2411" d="M20.18,10.09A16.63,16.63,0,0,0,18.33,10C13.17,10,10,13.18,10,19.77c0,8.64,4.36,13.1,8.33,13.1a5.9,5.9,0,0,0,2.45-.56" fill="none" stroke="#445d82" stroke-linecap="round" stroke-linejoin="round" stroke-width="2" fill-rule="evenodd"></path>
  <path id="Trazado_2412" data-name="Trazado 2412" d="M37.31,32.92c0,7.84,9.19,7,14.11,10.11C53.51,44.34,55,50,55,53.72c0,5.71-46,5.71-46,0,0-3.5,1.3-9.12,3.19-10.42C17,39.94,26.56,41.22,26.56,32.92" fill="none" stroke="#445d82" stroke-linecap="round" stroke-miterlimit="10" stroke-width="2" fill-rule="evenodd"></path>
  <path id="Trazado_2413" data-name="Trazado 2413" d="M32,35c4.76,0,10-5.45,10-16,0-8.1-3.81-12-10-12S22,10.9,22,19C22,29.55,27.24,35,32,35Z" fill="none" stroke="#445d82" stroke-miterlimit="10" stroke-width="2" fill-rule="evenodd"></path>
  <line id="Línea_34" data-name="Línea 34" x1="4.47" y2="1.57" transform="translate(3.18 28.75)" fill="none" stroke="#445d82" stroke-linecap="round" stroke-linejoin="round" stroke-width="1"></line>
  <line id="Línea_35" data-name="Línea 35" y1="0.07" x2="2.41" transform="translate(4.83 26)" fill="none" stroke="#445d82" stroke-linecap="round" stroke-linejoin="round" stroke-width="1"></line>
  <line id="Línea_36" data-name="Línea 36" y1="1.1" x2="1.34" transform="translate(7.66 30.9)" fill="none" stroke="#445d82" stroke-linecap="round" stroke-linejoin="round" stroke-width="1"></line>
  <path id="Trazado_2414" data-name="Trazado 2414" d="M15.83,44.74c-2.27.74-2.34,1-3.13,4" fill="none" stroke="#445d82" stroke-linecap="round" stroke-linejoin="round" stroke-width="1"></path>
  <path id="Trazado_2415" data-name="Trazado 2415" d="M34.49,3.52a6.86,6.86,0,0,1,5,1.9" fill="none" stroke="#445d82" stroke-linecap="round" stroke-linejoin="round" stroke-width="1"></path>
  <path id="Trazado_2416" data-name="Trazado 2416" d="M36.43,1.51a6,6,0,0,1,3,1.08" fill="none" stroke="#445d82" stroke-linecap="round" stroke-linejoin="round" stroke-width="1"></path>
</svg>
