<?xml version="1.0" encoding="UTF-8"?>
<svg xmlns="http://www.w3.org/2000/svg" width="64.175" height="64" viewBox="0 0 64.175 64">
  <g id="Customer_Reports" data-name="Customer Reports" transform="translate(0.172)">
    <g id="Container" opacity="0">
      <rect id="Rectángulo_1973" data-name="Rectángulo 1973" width="64" height="64" fill="#e04c59"></rect>
    </g>
    <path id="Trazado_2417" data-name="Trazado 2417" d="M8.4,44.13c-1.51,0-2.14-1.13-2.3-2.35-1-7.62-1.44-21.47-.86-27.45.31-3.2,1.7-4.1,4.59-4.44,10-1.19,32.73-1.05,43.63-.38,3.59.22,4.84,1.26,5.28,5.13.62,5.47.08,19.17-1,26.8-.15,1.08-.51,2.68-1.85,2.69" fill="none" stroke="#445d82" stroke-linecap="round" stroke-linejoin="round" stroke-width="2"></path>
    <path id="Trazado_2418" data-name="Trazado 2418" d="M55.54,33.45c-.08,6.37-.38,7-2.72,7" fill="none" stroke="#445d82" stroke-linecap="round" stroke-linejoin="round" stroke-width="1"></path>
    <path id="Trazado_2419" data-name="Trazado 2419" d="M8.5,25.51c0,4.49,0,6.27.1,8" fill="none" stroke="#445d82" stroke-linecap="round" stroke-linejoin="round" stroke-width="1"></path>
    <path id="Trazado_2420" data-name="Trazado 2420" d="M29.28,19.17a4.79,4.79,0,0,0-6.57.5" fill="none" stroke="#445d82" stroke-linecap="round" stroke-linejoin="round" stroke-width="1"></path>
    <path id="Trazado_2421" data-name="Trazado 2421" d="M28.11,15.72a5.66,5.66,0,0,0-3.92.16" fill="none" stroke="#445d82" stroke-linecap="round" stroke-linejoin="round" stroke-width="1"></path>
    <line id="Línea_37" data-name="Línea 37" x1="2.71" y1="4.29" transform="translate(2.57 3.18)" fill="none" stroke="#445d82" stroke-linecap="round" stroke-linejoin="round" stroke-width="1"></line>
    <line id="Línea_38" data-name="Línea 38" x2="2.98" y2="1.94" transform="translate(0.52 7.47)" fill="none" stroke="#445d82" stroke-linecap="round" stroke-linejoin="round" stroke-width="1"></line>
    <line id="Línea_39" data-name="Línea 39" y2="1.96" transform="translate(7.47 4.47)" fill="none" stroke="#445d82" stroke-linecap="round" stroke-linejoin="round" stroke-width="1"></line>
    <path id="Trazado_2422" data-name="Trazado 2422" d="M58.38,44.81a27.25,27.25,0,0,1,4.18,6A10.09,10.09,0,0,1,63,54c0,1.7-.52,2.5-2.28,2.85-8.62,1.7-50.42,1.4-57.55-.18A2.79,2.79,0,0,1,1.07,54a10.17,10.17,0,0,1,.13-3.15,26.57,26.57,0,0,1,4.21-6.17c.46-.44,1.93-.53,3.24-.56,6.11-.18,37.18-.17,46.57,0C56.64,44.16,57.55,44,58.38,44.81Z" fill="none" stroke="#445d82" stroke-linecap="round" stroke-linejoin="round" stroke-width="2"></path>
    <path id="Trazado_2423" data-name="Trazado 2423" d="M2.09,50.16c-.7,1.09-.35,2,1.08,2.19,9.73,1.51,47.13,1.59,57.38-.12C62,52,62,50.78,61.28,49.49" fill="none" stroke="#445d82" stroke-linecap="round" stroke-linejoin="round" stroke-width="1"></path>
    <path id="Trazado_2424" data-name="Trazado 2424" d="M9.54,47.57c1.05,0,4.52-.19,6.73-.06" fill="none" stroke="#445d82" stroke-linecap="round" stroke-linejoin="round" stroke-width="1"></path>
    <path id="Trazado_2425" data-name="Trazado 2425" d="M20.24,47.51c2.72.11,3.49,0,5.14.05" fill="none" stroke="#445d82" stroke-linecap="round" stroke-linejoin="round" stroke-width="1"></path>
    <path id="Trazado_2426" data-name="Trazado 2426" d="M29.28,47.51c2.72.11,3.48,0,5.14.05" fill="none" stroke="#445d82" stroke-linecap="round" stroke-linejoin="round" stroke-width="1"></path>
    <path id="Trazado_2427" data-name="Trazado 2427" d="M38.31,47.54c1.6.05,4.34.06,5,0" fill="none" stroke="#445d82" stroke-linecap="round" stroke-linejoin="round" stroke-width="1"></path>
    <path id="Trazado_2428" data-name="Trazado 2428" d="M47.31,47.57c1.57-.08,5.94-.08,7.25,0" fill="none" stroke="#445d82" stroke-linecap="round" stroke-linejoin="round" stroke-width="1"></path>
    <path id="Trazado_2429" data-name="Trazado 2429" d="M7.48,50.36c1.6.13,4.1.13,6,.13" fill="none" stroke="#445d82" stroke-linecap="round" stroke-linejoin="round" stroke-width="1"></path>
    <path id="Trazado_2430" data-name="Trazado 2430" d="M50.53,50.51c1.94,0,4.59,0,6-.07" fill="none" stroke="#445d82" stroke-linecap="round" stroke-linejoin="round" stroke-width="1"></path>
    <path id="Trazado_2431" data-name="Trazado 2431" d="M19.56,53.36c.49-1.55,1.25-2.74,1.94-2.79,2.41-.17,18.42-.21,20.91,0,.82.07,1.89,2,2,2.76" fill="none" stroke="#445d82" stroke-linecap="round" stroke-linejoin="round" stroke-width="1"></path>
    <path id="Trazado_2432" data-name="Trazado 2432" d="M15.18,29.93c.56-1,8.32-8.29,10.82-8.27,2.11,0,6.39,7,8,7,1.36,0,7.91-6.75,7.76-7.11-.22-.53-2.69-2.36-2.14-3,.72-.87,8.4-2.69,9.47-1.75s-.64,9-1.52,9.26-2.68-1.74-3.17-2S36.69,33.7,34,33.7s-6.45-6-7.93-6.06c-1.69,0-9.63,10.71-10.81,10S14.49,31.23,15.18,29.93Z" fill="none" stroke="#445d82" stroke-linecap="round" stroke-linejoin="round" stroke-width="1"></path>
  </g>
</svg>
